<svg width="24" height="24" viewBox="0 0 24 24" fill="none" xmlns="http://www.w3.org/2000/svg">
<path d="M22.102 11.147V12.878H1.904V6.672H0V19.086H1.904V16.249H22.102V19.323H24V11.145L22.102 11.147Z" fill="white"/>
<path d="M8.709 11.165C8.709 11.729 8.252 12.187 7.687 12.187H3.793C3.65871 12.1873 3.5257 12.1611 3.40158 12.1098C3.27747 12.0585 3.1647 11.9833 3.06975 11.8883C2.97479 11.7933 2.89952 11.6806 2.84826 11.5565C2.79699 11.4323 2.77073 11.2993 2.771 11.165V11.163C2.771 10.599 3.228 10.141 3.793 10.141H7.687C8.251 10.141 8.709 10.598 8.709 11.163V11.165ZM19.743 7.16405H17.373V4.80005H15.693V7.16505H13.328V8.84505H15.692V11.21H17.372V8.84505H19.742L19.743 7.16405Z" fill="white"/>
</svg>
