<svg width="14" height="16" viewBox="0 0 14 16" fill="none" xmlns="http://www.w3.org/2000/svg">
<path d="M4.75003 2.75C4.75003 2.45453 4.80823 2.16194 4.9213 1.88896C5.03438 1.61598 5.20011 1.36794 5.40904 1.15901C5.61798 0.950078 5.86601 0.784344 6.139 0.671271C6.41198 0.558198 6.70456 0.5 7.00003 0.5C7.29551 0.5 7.58809 0.558198 7.86107 0.671271C8.13405 0.784344 8.38209 0.950078 8.59102 1.15901C8.79996 1.36794 8.96569 1.61598 9.07876 1.88896C9.19184 2.16194 9.25003 2.45453 9.25003 2.75C9.25003 3.04547 9.19184 3.33806 9.07876 3.61104C8.96569 3.88402 8.79996 4.13206 8.59102 4.34099C8.38209 4.54992 8.13405 4.71566 7.86107 4.82873C7.58809 4.9418 7.29551 5 7.00003 5C6.70456 5 6.41198 4.9418 6.139 4.82873C5.86601 4.71566 5.61798 4.54992 5.40904 4.34099C5.20011 4.13206 5.03438 3.88402 4.9213 3.61104C4.80823 3.33806 4.75003 3.04547 4.75003 2.75ZM1.24066 4.51562C1.64691 3.95625 2.42816 3.83437 2.98753 4.24062L4.11878 5.0625C4.95628 5.67188 5.96566 6 7.00003 6C8.03441 6 9.04378 5.67188 9.88128 5.0625L11.0125 4.2375C11.5719 3.83125 12.3532 3.95625 12.7594 4.5125C13.1657 5.06875 13.0407 5.85313 12.4844 6.25938L11.3532 7.08437C10.9282 7.39375 10.475 7.65312 10 7.86562V9H4.00003V7.86562C3.52503 7.65625 3.07191 7.39375 2.64691 7.08437L1.51566 6.25938C0.956284 5.85313 0.834409 5.07187 1.24066 4.5125V4.51562ZM4.04691 10.2906L5.94066 11.9469L5.12816 13.1094L5.88753 13.8687C6.37503 14.3562 6.37503 15.1469 5.88753 15.6375C5.40003 16.1281 4.60941 16.125 4.11878 15.6375L2.61878 14.1375C2.18753 13.7062 2.12816 13.0313 2.47503 12.5344L4.04378 10.2906H4.04691ZM8.06253 11.9469L9.95628 10.2906L11.525 12.5344C11.8719 13.0313 11.8125 13.7062 11.3844 14.1344L9.88441 15.6344C9.39691 16.1219 8.60628 16.1219 8.11566 15.6344C7.62503 15.1469 7.62816 14.3563 8.11566 13.8656L8.87503 13.1062L8.06253 11.9438V11.9469Z" fill="white"/>
</svg>
