<svg width="16" height="16" viewBox="0 0 16 16" fill="none" xmlns="http://www.w3.org/2000/svg">
<g id="mynaui:telephone-solid">
<path id="Vector" d="M6.00266 2.27733C5.62132 1.73733 5.09332 1.494 4.53332 1.5C4.00199 1.50533 3.48466 1.73267 3.05266 2.03533C2.61203 2.34555 2.23631 2.73893 1.94666 3.19333C1.67332 3.626 1.47599 4.13733 1.50266 4.63667C1.63132 7.03867 2.98266 9.60534 4.88066 11.5047C6.77732 13.402 9.30999 14.7207 11.8673 14.4687C12.3687 14.4193 12.8427 14.164 13.23 13.8387C13.6306 13.4993 13.9579 13.082 14.192 12.612C14.4187 12.1507 14.554 11.6187 14.4793 11.1007C14.402 10.5607 14.1 10.078 13.5447 9.758C13.4296 9.69125 13.3158 9.62235 13.2033 9.55133C13.1033 9.48933 12.9967 9.422 12.8673 9.34467C12.6032 9.18179 12.3244 9.04386 12.0347 8.93267C11.7367 8.824 11.396 8.75267 11.0413 8.80133C10.674 8.852 10.3327 9.02533 10.0373 9.336C9.80999 9.576 9.47532 9.65067 9.00466 9.51467C8.52599 9.376 7.98732 9.032 7.51932 8.56667C7.05132 8.10267 6.69732 7.56 6.54599 7.07C6.39666 6.58467 6.46266 6.228 6.69599 5.982C7.01132 5.65 7.17932 5.28067 7.21466 4.89C7.24932 4.51 7.15466 4.15267 7.01932 3.84067C6.81666 3.37467 6.47266 2.91133 6.20332 2.55C6.13561 2.45966 6.06894 2.36855 6.00332 2.27667" fill="white"/>
</g>
</svg>
