<svg width="24" height="24" viewBox="0 0 24 24" fill="none" xmlns="http://www.w3.org/2000/svg">
<path d="M12.125 14.339C13.11 14.339 14.0547 13.9477 14.7512 13.2512M12.125 14.339C11.14 14.339 10.1953 13.9477 9.49881 13.2512M12.125 14.339V17.125M14.7512 13.2512C15.4477 12.5547 15.839 11.61 15.839 10.625M14.7512 13.2512L16.721 15.221M15.839 10.625C15.839 9.63999 15.4477 8.69532 14.7512 7.99881M15.839 10.625H18.625M14.7512 7.99881C14.0547 7.3023 13.11 6.911 12.125 6.911M14.7512 7.99881L16.721 6.029M12.125 6.911C11.14 6.911 10.1953 7.3023 9.49881 7.99881M12.125 6.911V4.125M9.49881 7.99881C8.80229 8.69532 8.411 9.63999 8.411 10.625M9.49881 7.99881L7.529 6.029M8.411 10.625C8.411 11.61 8.80229 12.5547 9.49881 13.2512M8.411 10.625H5.625M9.49881 13.2512L7.529 15.221M11.506 4.125H12.744M16.283 5.59L17.159 6.467M18.625 10.006V11.244M17.159 14.783L16.283 15.659M12.744 17.125H11.506M7.967 15.659L7.091 14.783M5.625 11.244V10.006M7.091 6.467L7.967 5.591" stroke="white" stroke-width="1.5" stroke-linecap="round" stroke-linejoin="round"/>
<path d="M2.25002 3.92296V11.537C2.25002 15.26 3.87902 20.337 10.923 23.05C11.6163 23.3166 12.3838 23.3166 13.077 23.05C20.118 20.342 21.75 15.228 21.75 11.537V3.92296C21.7516 3.63652 21.6705 3.35571 21.5166 3.11415C21.3626 2.87259 21.1423 2.68053 20.882 2.56096C18.0819 1.33875 15.0552 0.721617 12 0.749957C8.94488 0.721617 5.91818 1.33875 3.11802 2.56096C2.85773 2.68053 2.63742 2.87259 2.48348 3.11415C2.32953 3.35571 2.24848 3.63652 2.25002 3.92296Z" stroke="white" stroke-width="1.5" stroke-linecap="round" stroke-linejoin="round"/>
</svg>
